<svg width="56" height="56" viewBox="0 0 56 56" fill="none" xmlns="http://www.w3.org/2000/svg">
<g clip-path="url(#clip0_603_7)">
<path d="M52.1027 12.0505C52.1027 9.71129 50.1888 7.79736 47.8496 7.79736H15.9495C13.6102 7.79736 11.6963 9.71129 11.6963 12.0505V51.7467C11.6963 54.086 13.6102 55.9999 15.9495 55.9999H40.0486L52.0993 44.6581L52.1027 12.0505Z" fill="#DADEE0"/>
<path d="M11.6949 12.0506C11.6949 9.71139 13.6089 7.79747 15.9481 7.79747H44.3039V4.25316C44.3039 1.91392 42.39 0 40.0508 0H8.15063C5.81139 0 3.89746 1.91392 3.89746 4.25316V43.9494C3.89746 46.2886 5.81139 48.2025 8.15063 48.2025H11.6949V12.0506Z" fill="#173E6F"/>
<path d="M44.302 44.6582H52.0995L40.0488 56V48.9114C40.0488 46.5721 41.9627 44.6582 44.302 44.6582Z" fill="#F2F2F2"/>
<path d="M22.3289 26.5826H41.4682C42.0559 26.5826 42.5314 26.1062 42.5314 25.5193C42.5314 24.9318 42.0557 24.4561 41.4682 24.4561H22.3289C21.7413 24.4561 21.2656 24.9318 21.2656 25.5193C21.2656 26.1062 21.7412 26.5826 22.3289 26.5826Z" fill="#1F4254"/>
<path d="M22.3289 19.4938H41.4682C42.0559 19.4938 42.5314 19.0174 42.5314 18.4305C42.5314 17.8429 42.0557 17.3672 41.4682 17.3672H22.3289C21.7413 17.3672 21.2656 17.8429 21.2656 18.4305C21.2656 19.0174 21.7412 19.4938 22.3289 19.4938Z" fill="#1F4254"/>
<path d="M22.3289 33.671H41.4682C42.0559 33.671 42.5314 33.1946 42.5314 32.6077C42.5314 32.0201 42.0557 31.5444 41.4682 31.5444H22.3289C21.7413 31.5444 21.2656 32.0201 21.2656 32.6077C21.2656 33.1946 21.7412 33.671 22.3289 33.671Z" fill="#1F4254"/>
<path d="M22.3289 40.7594H32.9618C33.5494 40.7594 34.0251 40.283 34.0251 39.6961C34.0251 39.1084 33.5494 38.6328 32.9618 38.6328H22.3289C21.7413 38.6328 21.2656 39.1084 21.2656 39.6961C21.2656 40.283 21.7412 40.7594 22.3289 40.7594Z" fill="#1F4254"/>
</g>
<defs>
<clipPath id="clip0_603_7">
<rect width="56" height="56" fill="white"/>
</clipPath>
</defs>
</svg>
