<svg width="29" height="9" viewBox="0 0 29 9"  xmlns="http://www.w3.org/2000/svg">
<path fill-rule="evenodd" clip-rule="evenodd" d="M0.663086 4.4168C0.663086 4.0186 0.929747 3.6958 1.25869 3.6958H27.4653C27.7942 3.6958 28.0609 4.0186 28.0609 4.4168C28.0609 4.81499 27.7942 5.13779 27.4653 5.13779H1.25869C0.929747 5.13779 0.663086 4.81499 0.663086 4.4168Z"/>
<path fill-rule="evenodd" clip-rule="evenodd" d="M23.913 0.975567C24.1478 0.755038 24.5256 0.75788 24.7568 0.981915L27.8894 4.01768C28.118 4.23922 28.118 4.59475 27.8894 4.81629L24.7568 7.85205C24.5256 8.07609 24.1478 8.07893 23.913 7.8584C23.6781 7.63787 23.6751 7.27748 23.9063 7.05345V7.05345C25.3948 5.61095 25.3948 3.22302 23.9063 1.78052V1.78052C23.6751 1.55649 23.6781 1.1961 23.913 0.975567Z"/>
</svg>
