<svg width="19" height="9" viewBox="0 0 19 9"  xmlns="http://www.w3.org/2000/svg">
<path fill-rule="evenodd" clip-rule="evenodd" d="M18.2432 4.4168C18.2432 4.0186 17.9767 3.6958 17.648 3.6958H2.01508C1.6864 3.6958 1.41996 4.0186 1.41996 4.4168C1.41996 4.81499 1.6864 5.13779 2.01508 5.13779H17.648C17.9767 5.13779 18.2432 4.81499 18.2432 4.4168Z"/>
<path fill-rule="evenodd" clip-rule="evenodd" d="M4.60656 0.975567C4.37171 0.755038 3.99391 0.75788 3.76273 0.981915L0.630156 4.01768C0.40155 4.23922 0.40155 4.59475 0.630156 4.81629L3.76273 7.85205C3.99391 8.07609 4.37171 8.07893 4.60656 7.8584C4.84141 7.63787 4.84439 7.27748 4.61321 7.05345V7.05345C3.12471 5.61095 3.12471 3.22302 4.61321 1.78052V1.78052C4.84439 1.55649 4.84141 1.1961 4.60656 0.975567Z"/>
</svg>
