<svg width="18" height="60" viewBox="0 0 18 60" fill="none" xmlns="http://www.w3.org/2000/svg">
<path fill-rule="evenodd" clip-rule="evenodd" d="M0.986399 0.185846C1.86751 -0.248043 2.93894 0.103694 3.37949 0.971472L17.6491 29.0789C18.0897 29.9467 17.7326 31.0019 16.8514 31.4358C15.9703 31.8697 14.8989 31.5179 14.4583 30.6501L0.188702 2.54273C-0.251855 1.67495 0.105287 0.619736 0.986399 0.185846Z" fill="#2838E9"/>
<path fill-rule="evenodd" clip-rule="evenodd" d="M0.986399 59.8142C1.86751 60.248 2.93894 59.8963 3.37949 59.0285L17.6491 30.9211C18.0897 30.0533 17.7326 28.9981 16.8514 28.5642C15.9703 28.1303 14.8989 28.4821 14.4583 29.3499L0.188702 57.4573C-0.251855 58.3251 0.105287 59.3803 0.986399 59.8142Z" fill="#2838E9"/>
</svg>
