<svg width="19" height="60" viewBox="0 0 19 60" fill="none" xmlns="http://www.w3.org/2000/svg">
<path fill-rule="evenodd" clip-rule="evenodd" d="M17.2568 0.185846C16.3757 -0.248043 15.3042 0.103694 14.8637 0.971472L0.594026 29.0789C0.15347 29.9467 0.510611 31.0019 1.39172 31.4358C2.27284 31.8697 3.34426 31.5179 3.78482 30.6501L18.0545 2.54273C18.495 1.67495 18.1379 0.619736 17.2568 0.185846Z" fill="#2838E9"/>
<path fill-rule="evenodd" clip-rule="evenodd" d="M17.2568 59.8142C16.3757 60.248 15.3042 59.8963 14.8637 59.0285L0.594026 30.9211C0.15347 30.0533 0.510611 28.9981 1.39172 28.5642C2.27284 28.1303 3.34426 28.4821 3.78482 29.3499L18.0545 57.4573C18.495 58.3251 18.1379 59.3803 17.2568 59.8142Z" fill="#2838E9"/>
</svg>
