<svg width="20" height="20" viewBox="0 0 20 20" fill="none" xmlns="http://www.w3.org/2000/svg">
<path d="M14.0148 7.08523L8.70455 11.4261C8.65212 11.4677 8.6179 11.528 8.60909 11.5943L8.55568 12.0352L8.40909 13.2739C8.41045 13.2889 8.40576 13.3039 8.39607 13.3155C8.38637 13.3272 8.37246 13.3344 8.35739 13.3358C8.34232 13.3371 8.32733 13.3325 8.31571 13.3228C8.3041 13.3131 8.29681 13.2992 8.29546 13.2841L7.88296 12.0455L7.45682 10.7784C7.43864 10.7216 7.44096 10.6603 7.46339 10.605C7.48582 10.5498 7.52693 10.5042 7.57955 10.4761L13.85 6.88295C13.9943 6.79886 14.142 6.98068 14.0148 7.08523Z" fill="#E8ECF1"/>
<path d="M10 0C8.02219 0 6.08879 0.58649 4.4443 1.6853C2.79981 2.78412 1.51809 4.3459 0.761209 6.17316C0.00433288 8.00042 -0.1937 10.0111 0.192152 11.9509C0.578004 13.8907 1.53041 15.6725 2.92894 17.0711C4.32746 18.4696 6.10929 19.422 8.0491 19.8078C9.98891 20.1937 11.9996 19.9957 13.8268 19.2388C15.6541 18.4819 17.2159 17.2002 18.3147 15.5557C19.4135 13.9112 20 11.9778 20 10C20 7.34783 18.9464 4.8043 17.0711 2.92893C15.1957 1.05357 12.6522 0 10 0ZM16.2375 5.78864L14.2852 14.4148C14.1932 14.8193 13.6795 15.0023 13.3193 14.7557L10.3716 12.7557L8.87046 14.175C8.80925 14.2324 8.73495 14.2741 8.654 14.2963C8.57306 14.3185 8.48791 14.3206 8.40596 14.3025C8.324 14.2844 8.24771 14.2465 8.1837 14.1922C8.11969 14.1379 8.0699 14.0688 8.03864 13.9909L6.95455 10.8091L4.04887 10.0136C3.96762 9.9959 3.89452 9.95182 3.84091 9.88824C3.78731 9.82467 3.75621 9.74517 3.75245 9.6621C3.74869 9.57902 3.77249 9.49704 3.82013 9.42888C3.86778 9.36073 3.9366 9.31023 4.01591 9.28523L15.2409 5.24091L15.4477 5.16704C15.883 5.01477 16.333 5.36704 16.2375 5.78864Z" fill="#E8ECF1"/>
</svg>
