<svg width="35" height="35" viewBox="0 0 35 35" fill="none" xmlns="http://www.w3.org/2000/svg">
<path d="M32.9961 30.2975L33.6707 31.3529M12.8846 2.69231C9.80456 2.69231 7.30769 5.18918 7.30769 8.26923C7.30769 11.3493 9.80456 13.8462 12.8846 13.8462C15.9647 13.8462 18.4615 11.3493 18.4615 8.26923C18.4615 5.18918 15.9647 2.69231 12.8846 2.69231ZM4.61538 8.26923C4.61538 3.70226 8.31764 0 12.8846 0C17.4516 0 21.1538 3.70226 21.1538 8.26923C21.1538 12.8362 17.4516 16.5385 12.8846 16.5385C8.31764 16.5385 4.61538 12.8362 4.61538 8.26923ZM9.47017 23.4615C5.72686 23.4615 2.69231 26.4961 2.69231 30.2394C2.69231 30.4257 2.72444 30.5544 2.7567 30.6272C2.7827 30.6859 2.80185 30.697 2.81034 30.702C3.73367 31.2446 6.38983 32.3077 12.8846 32.3077C19.3794 32.3077 22.0348 31.2451 22.9581 30.7024C22.9666 30.6975 22.9865 30.6859 23.0125 30.6272C23.0448 30.5544 23.0769 30.4257 23.0769 30.2394C23.0769 26.4961 20.0424 23.4615 16.2991 23.4615H9.47017ZM0 30.2394C0 25.0092 4.23994 20.7692 9.47017 20.7692H16.2991C21.5293 20.7692 25.7692 25.0092 25.7692 30.2394C25.7692 31.1403 25.4648 32.3521 24.3223 33.0235C22.8166 33.9085 19.6155 35 12.8846 35C6.15368 35 2.95263 33.9085 1.44695 33.0235C0.304458 32.3521 0 31.1403 0 30.2394ZM25.3512 2.35432C24.6335 2.16034 23.8944 2.58491 23.7005 3.30262C23.5065 4.02033 23.9311 4.7594 24.6488 4.95337C26.2948 5.39823 27.6923 7.14373 27.6923 9.42308C27.6923 11.8255 26.0684 13.6388 24.2625 13.8558C23.5244 13.9444 22.9979 14.6147 23.0865 15.3529C23.1752 16.091 23.8455 16.6175 24.5836 16.5289C27.9701 16.1221 30.3846 12.9458 30.3846 9.42308C30.3846 6.08911 28.3206 3.15686 25.3512 2.35432ZM27.7172 21.8577C27.8595 21.128 28.5664 20.6518 29.2961 20.7941C32.609 21.4402 35 24.3425 35 27.7178V28.6536C35 29.4821 34.7514 30.6621 33.6707 31.3529C32.9431 31.818 31.8146 32.3135 30.0746 32.6656C29.3459 32.813 28.6357 32.3418 28.4883 31.6131C28.3408 30.8844 28.8121 30.1742 29.5408 30.0267C31.0206 29.7273 31.8225 29.3382 32.217 29.0868C32.2195 29.0852 32.2217 29.0834 32.2239 29.0814C32.2268 29.0777 32.2372 29.0635 32.2503 29.0317C32.2789 28.9621 32.3077 28.8373 32.3077 28.6536V27.7178C32.3077 25.6308 30.8293 23.8361 28.7808 23.4366C28.0511 23.2943 27.5749 22.5874 27.7172 21.8577Z" fill="white"/>
<path d="M32.9961 30.2975L33.6707 31.3529M12.8846 2.69231C9.80456 2.69231 7.30769 5.18918 7.30769 8.26923C7.30769 11.3493 9.80456 13.8462 12.8846 13.8462C15.9647 13.8462 18.4615 11.3493 18.4615 8.26923C18.4615 5.18918 15.9647 2.69231 12.8846 2.69231ZM4.61538 8.26923C4.61538 3.70226 8.31764 0 12.8846 0C17.4516 0 21.1538 3.70226 21.1538 8.26923C21.1538 12.8362 17.4516 16.5385 12.8846 16.5385C8.31764 16.5385 4.61538 12.8362 4.61538 8.26923ZM9.47017 23.4615C5.72686 23.4615 2.69231 26.4961 2.69231 30.2394C2.69231 30.4257 2.72444 30.5544 2.7567 30.6272C2.7827 30.6859 2.80185 30.697 2.81034 30.702C3.73367 31.2446 6.38983 32.3077 12.8846 32.3077C19.3794 32.3077 22.0348 31.2451 22.9581 30.7024C22.9666 30.6975 22.9865 30.6859 23.0125 30.6272C23.0448 30.5544 23.0769 30.4257 23.0769 30.2394C23.0769 26.4961 20.0424 23.4615 16.2991 23.4615H9.47017ZM0 30.2394C0 25.0092 4.23994 20.7692 9.47017 20.7692H16.2991C21.5293 20.7692 25.7692 25.0092 25.7692 30.2394C25.7692 31.1403 25.4648 32.3521 24.3223 33.0235C22.8166 33.9085 19.6155 35 12.8846 35C6.15368 35 2.95263 33.9085 1.44695 33.0235C0.304458 32.3521 0 31.1403 0 30.2394ZM25.3512 2.35432C24.6335 2.16034 23.8944 2.58491 23.7005 3.30262C23.5065 4.02033 23.9311 4.7594 24.6488 4.95337C26.2948 5.39823 27.6923 7.14373 27.6923 9.42308C27.6923 11.8255 26.0684 13.6388 24.2625 13.8558C23.5244 13.9444 22.9979 14.6147 23.0865 15.3529C23.1752 16.091 23.8455 16.6175 24.5836 16.5289C27.9701 16.1221 30.3846 12.9458 30.3846 9.42308C30.3846 6.08911 28.3206 3.15686 25.3512 2.35432ZM27.7172 21.8577C27.8595 21.128 28.5664 20.6518 29.2961 20.7941C32.609 21.4402 35 24.3425 35 27.7178V28.6536C35 29.4821 34.7514 30.6621 33.6707 31.3529C32.9431 31.818 31.8146 32.3135 30.0746 32.6656C29.3459 32.813 28.6357 32.3418 28.4883 31.6131C28.3408 30.8844 28.8121 30.1742 29.5408 30.0267C31.0206 29.7273 31.8225 29.3382 32.217 29.0868C32.2195 29.0852 32.2217 29.0834 32.2239 29.0814C32.2268 29.0777 32.2372 29.0635 32.2503 29.0317C32.2789 28.9621 32.3077 28.8373 32.3077 28.6536V27.7178C32.3077 25.6308 30.8293 23.8361 28.7808 23.4366C28.0511 23.2943 27.5749 22.5874 27.7172 21.8577Z" stroke="#3C4CFD"/>
</svg>
