<?xml version="1.0" encoding="utf-8"?><svg width="56" height="56" fill="none" xmlns="http://www.w3.org/2000/svg" viewBox="0 0 56 56"><g clip-path="url(#dclip0_603_7)"><path d="M52.103 12.05a4.266 4.266 0 00-4.253-4.253h-31.9a4.266 4.266 0 00-4.254 4.253v39.697A4.266 4.266 0 0015.95 56h24.099l12.05-11.342.004-32.608z" fill="#DADEE0"/><path d="M11.695 12.05a4.266 4.266 0 014.253-4.253h28.356V4.253A4.266 4.266 0 0040.05 0H8.15a4.266 4.266 0 00-4.254 4.253V43.95a4.266 4.266 0 004.254 4.254h3.544V12.05z" fill="#173E6F"/><path d="M44.302 44.658h7.797L40.05 56v-7.089a4.266 4.266 0 014.253-4.253z" fill="#F2F2F2"/><path d="M22.329 26.583h19.14a1.063 1.063 0 100-2.127h-19.14a1.063 1.063 0 100 2.127zM22.329 19.494h19.14a1.063 1.063 0 100-2.127h-19.14a1.063 1.063 0 100 2.127zM22.329 33.671h19.14a1.063 1.063 0 100-2.127h-19.14a1.063 1.063 0 100 2.127zM22.329 40.76h10.633a1.063 1.063 0 100-2.127H22.329a1.063 1.063 0 100 2.126z" fill="#1F4254"/></g><defs><clipPath id="dclip0_603_7"><path fill="#fff" d="M0 0h56v56H0z"/></clipPath></defs></svg>