<?xml version="1.0" encoding="utf-8"?><svg width="20" height="20" fill="none" xmlns="http://www.w3.org/2000/svg" viewBox="0 0 20 20"><path d="M10 12.1a2.1 2.1 0 100-4.2 2.1 2.1 0 000 4.2z" fill="#E8ECF1"/><path d="M10 0C4.477 0 0 4.477 0 10s4.477 10 10 10 10-4.477 10-10S15.523 0 10 0zm6.178 12.542c-.048.95-.315 1.888-1.008 2.573-.7.692-1.641.95-2.601.998H7.43c-.96-.048-1.902-.306-2.601-.998-.693-.685-.96-1.623-1.008-2.573V7.458c.048-.95.315-1.888 1.008-2.573.7-.692 1.641-.95 2.601-.998h5.138c.96.048 1.902.306 2.601.998.693.685.96 1.623 1.008 2.573v5.084z" fill="#E8ECF1"/><path d="M12.504 5.046a121.792 121.792 0 00-5.008 0c-.65.017-1.39.18-1.853.675-.482.515-.665 1.138-.683 1.834-.033 1.222 0 4.89 0 4.89.021.696.2 1.319.683 1.834.464.496 1.202.658 1.853.675 1.252.035 3.757.035 5.008 0 .651-.017 1.39-.18 1.854-.675.482-.515.664-1.138.682-1.834v-4.89c-.018-.696-.2-1.319-.682-1.834-.465-.496-1.203-.658-1.854-.675zM10 13.255a3.255 3.255 0 110-6.51 3.255 3.255 0 010 6.51zm3.269-5.838a.65.65 0 110-1.302.65.65 0 010 1.302z" fill="#E8ECF1"/></svg>