<?xml version="1.0" encoding="utf-8"?><svg width="29" height="9" xmlns="http://www.w3.org/2000/svg" viewBox="0 0 29 9"><path fill-rule="evenodd" clip-rule="evenodd" d="M.663 4.417c0-.398.267-.721.596-.721h26.206c.33 0 .596.323.596.72 0 .399-.267.722-.596.722H1.26c-.33 0-.596-.323-.596-.721z"/><path fill-rule="evenodd" clip-rule="evenodd" d="M23.913.976a.617.617 0 01.844.006l3.132 3.036a.55.55 0 010 .798l-3.132 3.036a.617.617 0 01-.844.006.55.55 0 01-.007-.805 3.671 3.671 0 000-5.272.55.55 0 01.007-.805z"/></svg>