<?xml version="1.0" encoding="utf-8"?><svg width="19" height="9" xmlns="http://www.w3.org/2000/svg" viewBox="0 0 19 9"><path fill-rule="evenodd" clip-rule="evenodd" d="M18.243 4.417c0-.398-.266-.721-.595-.721H2.015c-.329 0-.595.323-.595.72 0 .399.266.722.595.722h15.633c.329 0 .595-.323.595-.721z"/><path fill-rule="evenodd" clip-rule="evenodd" d="M4.607.976a.617.617 0 00-.844.006L.63 4.018a.55.55 0 000 .798l3.133 3.036a.617.617 0 00.844.006.55.55 0 00.006-.805 3.671 3.671 0 010-5.272.55.55 0 00-.006-.805z"/></svg>