<?xml version="1.0" encoding="utf-8"?><svg width="20" height="20" fill="none" xmlns="http://www.w3.org/2000/svg" viewBox="0 0 20 20"><path d="M14.015 7.085l-5.31 4.341a.258.258 0 00-.096.168l-.053.441-.147 1.239a.057.057 0 01-.114.01l-.412-1.239-.426-1.267a.255.255 0 01.123-.302l6.27-3.593c.144-.084.292.098.165.202z" fill="#E8ECF1"/><path d="M10 0a10 10 0 100 20 10 10 0 000-20zm6.238 5.789l-1.953 8.626c-.092.404-.605.587-.966.34l-2.947-2-1.502 1.42a.516.516 0 01-.831-.184l-1.084-3.182-2.906-.795a.377.377 0 01-.033-.729L15.24 5.241l.207-.074c.435-.152.885.2.79.622z" fill="#E8ECF1"/></svg>