<?xml version="1.0" encoding="utf-8"?><svg width="35" height="35" fill="none" xmlns="http://www.w3.org/2000/svg" viewBox="0 0 35 35"><path d="M32.996 30.297l.675 1.056M12.885 2.693a5.577 5.577 0 100 11.153 5.577 5.577 0 000-11.154zm-8.27 5.576a8.27 8.27 0 1116.539 0 8.27 8.27 0 01-16.539 0zM9.47 23.462a6.778 6.778 0 00-6.778 6.777.99.99 0 00.065.388c.026.059.045.07.053.075.924.543 3.58 1.606 10.075 1.606 6.494 0 9.15-1.063 10.073-1.606.009-.005.029-.016.055-.075a.989.989 0 00.064-.388 6.778 6.778 0 00-6.778-6.777H9.47zM0 30.239a9.47 9.47 0 019.47-9.47h6.83a9.47 9.47 0 019.47 9.47c0 .901-.305 2.113-1.448 2.784C22.817 33.908 19.616 35 12.885 35c-6.731 0-9.932-1.092-11.438-1.977C.304 32.353 0 31.14 0 30.24zM25.351 2.354a1.346 1.346 0 10-.702 2.6c1.646.444 3.043 2.19 3.043 4.47 0 2.402-1.624 4.215-3.43 4.432a1.346 1.346 0 00.322 2.673c3.386-.407 5.8-3.583 5.8-7.106 0-3.334-2.063-6.266-5.033-7.069zm2.366 19.504c.143-.73.85-1.206 1.58-1.064A7.054 7.054 0 0135 27.718v.936c0 .828-.249 2.008-1.33 2.699-.727.465-1.855.96-3.595 1.313a1.346 1.346 0 11-.534-2.64c1.48-.299 2.282-.688 2.676-.94a.051.051 0 00.007-.005.215.215 0 00.026-.05c.029-.069.058-.194.058-.377v-.936a4.362 4.362 0 00-3.527-4.281 1.346 1.346 0 01-1.064-1.58z" fill="#fff"/><path d="M32.996 30.297l.675 1.056M12.885 2.693a5.577 5.577 0 100 11.153 5.577 5.577 0 000-11.154zm-8.27 5.576a8.27 8.27 0 1116.539 0 8.27 8.27 0 01-16.539 0zM9.47 23.462a6.778 6.778 0 00-6.778 6.777.99.99 0 00.065.388c.026.059.045.07.053.075.924.543 3.58 1.606 10.075 1.606 6.494 0 9.15-1.063 10.073-1.606.009-.005.029-.016.055-.075a.989.989 0 00.064-.388 6.778 6.778 0 00-6.778-6.777H9.47zM0 30.239a9.47 9.47 0 019.47-9.47h6.83a9.47 9.47 0 019.47 9.47c0 .901-.305 2.113-1.448 2.784C22.817 33.908 19.616 35 12.885 35c-6.731 0-9.932-1.092-11.438-1.977C.304 32.353 0 31.14 0 30.24zM25.351 2.354a1.346 1.346 0 10-.702 2.6c1.646.444 3.043 2.19 3.043 4.47 0 2.402-1.624 4.215-3.43 4.432a1.346 1.346 0 00.322 2.673c3.386-.407 5.8-3.583 5.8-7.106 0-3.334-2.063-6.266-5.033-7.069zm2.366 19.504c.143-.73.85-1.206 1.58-1.064A7.054 7.054 0 0135 27.718v.936c0 .828-.249 2.008-1.33 2.699-.727.465-1.855.96-3.595 1.313a1.346 1.346 0 11-.534-2.64c1.48-.299 2.282-.688 2.676-.94a.051.051 0 00.007-.005.215.215 0 00.026-.05c.029-.069.058-.194.058-.377v-.936a4.362 4.362 0 00-3.527-4.281 1.346 1.346 0 01-1.064-1.58z" stroke="#3C4CFD"/></svg>