<?xml version="1.0" encoding="utf-8"?><svg width="20" height="20" fill="none" xmlns="http://www.w3.org/2000/svg" viewBox="0 0 20 20"><path d="M10 0a10 10 0 100 20 10 10 0 000-20zm5.764 13.914c-.291.04-1.714 0-1.788 0a1.396 1.396 0 01-.987-.391c-.3-.29-.569-.608-.862-.91a2.303 2.303 0 00-.28-.254c-.234-.18-.466-.14-.576.138a5.377 5.377 0 00-.18.912c-.02.28-.197.455-.51.474a7.09 7.09 0 01-.581.009 4.415 4.415 0 01-2.01-.496 5.472 5.472 0 01-1.72-1.503c-.757-.968-1.363-2.032-1.904-3.128a50.282 50.282 0 01-.597-1.291c-.05-.185 0-.364.154-.426.097-.038 1.925 0 1.955 0a.64.64 0 01.614.442c.338.865.8 1.675 1.373 2.407.08.097.174.182.278.253.149.102.29.067.351-.106.073-.238.116-.484.128-.733.01-.493 0-.817-.028-1.31-.018-.316-.13-.592-.595-.682-.143-.026-.156-.144-.064-.262.192-.245.455-.284.75-.3.438-.024.876-.007 1.315.001h.095c.191 0 .382.019.569.058a.524.524 0 01.417.467c.022.124.032.25.028.377-.011.538-.037 1.076-.043 1.614a2.76 2.76 0 00.058.635c.062.286.259.358.454.151.254-.267.486-.553.695-.855a8.61 8.61 0 00.909-1.768c.127-.319.227-.39.568-.39h1.939c.115-.001.23.014.34.046a.295.295 0 01.204.38c-.096.426-.325.788-.568 1.137-.394.558-.81 1.103-1.214 1.654a2.259 2.259 0 00-.133.221c-.152.275-.14.429.08.656.352.362.728.701 1.068 1.074.25.271.474.563.673.874.242.39.088.759-.375.825z" fill="#E8ECF1"/></svg>