<?xml version="1.0" encoding="utf-8"?><svg viewBox="0 0 1319 69" xmlns="http://www.w3.org/2000/svg" xmlns:xlink="http://www.w3.org/1999/xlink"><style>:root>svg{display:none}:root>svg:target{display:block}</style><svg fill="none" viewBox="0 0 25 26" id="close" xmlns="http://www.w3.org/2000/svg"><g opacity=".99" fill="#fff"><rect x="3.452" y=".939" width="30.095" height="3.783" rx="1.892" transform="rotate(45 3.452 .94)"/><rect x="1.044" y="22.608" width="30.095" height="3.783" rx="1.892" transform="rotate(-45 1.044 22.608)"/></g></svg><svg viewBox="0 0 11 6" id="down" xmlns="http://www.w3.org/2000/svg"><path fill-rule="evenodd" clip-rule="evenodd" d="M10.64.673a.79.79 0 010 1.116L7.174 5.255c-.72.72-1.886.72-2.605 0L1.103 1.79A.79.79 0 012.219.673l3.467 3.466c.102.103.269.103.372 0L9.524.673a.79.79 0 011.116 0z"/></svg><svg fill="none" viewBox="0 0 20 20" id="fb" xmlns="http://www.w3.org/2000/svg"><path d="M10 0C4.477 0 0 4.477 0 10c0 4.953 3.605 9.056 8.332 9.85v-7.764H5.92V9.293h2.412v-2.06c0-2.39 1.46-3.693 3.593-3.693 1.021 0 1.899.076 2.154.11v2.498h-1.48c-1.159 0-1.383.551-1.383 1.36v1.783h2.767l-.36 2.794h-2.406v7.832c4.947-.602 8.783-4.81 8.783-9.92C20 4.477 15.523 0 10 0z" fill="#E8ECF1"/></svg><svg fill="none" viewBox="0 0 56 56" id="files" xmlns="http://www.w3.org/2000/svg"><g clip-path="url(#dclip0_603_7)"><path d="M52.103 12.05a4.266 4.266 0 00-4.253-4.253h-31.9a4.266 4.266 0 00-4.254 4.253v39.697A4.266 4.266 0 0015.95 56h24.099l12.05-11.342.004-32.608z" fill="#DADEE0"/><path d="M11.695 12.05a4.266 4.266 0 014.253-4.253h28.356V4.253A4.266 4.266 0 0040.05 0H8.15a4.266 4.266 0 00-4.254 4.253V43.95a4.266 4.266 0 004.254 4.254h3.544V12.05z" fill="#173E6F"/><path d="M44.302 44.658h7.797L40.05 56v-7.089a4.266 4.266 0 014.253-4.253z" fill="#F2F2F2"/><path d="M22.329 26.583h19.14a1.063 1.063 0 100-2.127h-19.14a1.063 1.063 0 100 2.127zM22.329 19.494h19.14a1.063 1.063 0 100-2.127h-19.14a1.063 1.063 0 100 2.127zM22.329 33.671h19.14a1.063 1.063 0 100-2.127h-19.14a1.063 1.063 0 100 2.127zM22.329 40.76h10.633a1.063 1.063 0 100-2.127H22.329a1.063 1.063 0 100 2.126z" fill="#1F4254"/></g><defs><clipPath id="dclip0_603_7"><path fill="#fff" d="M0 0h56v56H0z"/></clipPath></defs></svg><svg fill="none" viewBox="0 0 20 20" id="ins" xmlns="http://www.w3.org/2000/svg"><path d="M10 12.1a2.1 2.1 0 100-4.2 2.1 2.1 0 000 4.2z" fill="#E8ECF1"/><path d="M10 0C4.477 0 0 4.477 0 10s4.477 10 10 10 10-4.477 10-10S15.523 0 10 0zm6.178 12.542c-.048.95-.315 1.888-1.008 2.573-.7.692-1.641.95-2.601.998H7.43c-.96-.048-1.902-.306-2.601-.998-.693-.685-.96-1.623-1.008-2.573V7.458c.048-.95.315-1.888 1.008-2.573.7-.692 1.641-.95 2.601-.998h5.138c.96.048 1.902.306 2.601.998.693.685.96 1.623 1.008 2.573v5.084z" fill="#E8ECF1"/><path d="M12.504 5.046a121.792 121.792 0 00-5.008 0c-.65.017-1.39.18-1.853.675-.482.515-.665 1.138-.683 1.834-.033 1.222 0 4.89 0 4.89.021.696.2 1.319.683 1.834.464.496 1.202.658 1.853.675 1.252.035 3.757.035 5.008 0 .651-.017 1.39-.18 1.854-.675.482-.515.664-1.138.682-1.834v-4.89c-.018-.696-.2-1.319-.682-1.834-.465-.496-1.203-.658-1.854-.675zM10 13.255a3.255 3.255 0 110-6.51 3.255 3.255 0 010 6.51zm3.269-5.838a.65.65 0 110-1.302.65.65 0 010 1.302z" fill="#E8ECF1"/></svg><svg viewBox="0 0 20 22" id="lg" xmlns="http://www.w3.org/2000/svg"><path d="M.755 12.566L0 14.056h3.206l.762-1.491-3.213.001zM7.665 0l8.94 8.001L6.289 20.147l3.562-7.574H4.828l-.757 1.488h3.04L3.397 22h3.466L19.412 7.996 10.495 0h-2.83z"/></svg><svg fill="none" viewBox="0 0 25 22" id="menu" xmlns="http://www.w3.org/2000/svg"><rect width="25" height="3.143" rx="1.571" fill="#fff"/><rect y="9.43" width="25" height="3.143" rx="1.571" fill="#fff"/><rect y="18.857" width="25" height="3.143" rx="1.571" fill="#fff"/></svg><svg viewBox="0 0 29 9" id="next" xmlns="http://www.w3.org/2000/svg"><path fill-rule="evenodd" clip-rule="evenodd" d="M.663 4.417c0-.398.267-.721.596-.721h26.206c.33 0 .596.323.596.72 0 .399-.267.722-.596.722H1.26c-.33 0-.596-.323-.596-.721z"/><path fill-rule="evenodd" clip-rule="evenodd" d="M23.913.976a.617.617 0 01.844.006l3.132 3.036a.55.55 0 010 .798l-3.132 3.036a.617.617 0 01-.844.006.55.55 0 01-.007-.805 3.671 3.671 0 000-5.272.55.55 0 01.007-.805z"/></svg><svg fill="none" viewBox="0 0 20 20" id="ok" xmlns="http://www.w3.org/2000/svg"><path d="M10.01 8.288A1.712 1.712 0 0011.72 6.56a1.715 1.715 0 00-1.72-1.72 1.718 1.718 0 00-1.726 1.741c.007.954.776 1.71 1.734 1.707z" fill="#E8ECF1"/><path d="M10 0C4.477 0 0 4.477 0 10s4.477 10 10 10 10-4.477 10-10S15.523 0 10 0zm.014 3.041c1.948.005 3.511 1.599 3.502 3.568-.01 1.924-1.6 3.483-3.544 3.476-1.925-.006-3.503-1.602-3.492-3.53a3.528 3.528 0 013.534-3.514zm3.946 8.428c-.431.443-.95.763-1.525.986-.545.21-1.141.317-1.732.388.09.097.132.144.187.2.802.806 1.607 1.607 2.405 2.415.273.275.33.617.18.936-.164.35-.531.58-.89.555-.229-.015-.407-.129-.564-.288-.605-.608-1.221-1.206-1.814-1.826-.172-.18-.255-.146-.408.011-.608.627-1.226 1.243-1.848 1.856-.28.276-.611.325-.936.168-.344-.167-.563-.518-.546-.872.012-.239.13-.421.293-.585.794-.791 1.584-1.585 2.375-2.379.053-.053.102-.108.178-.19-1.079-.113-2.052-.378-2.885-1.03-.103-.08-.21-.159-.304-.25-.365-.35-.401-.751-.113-1.164.247-.354.661-.448 1.092-.245.083.04.163.089.239.141 1.552 1.067 3.684 1.096 5.242.048.155-.118.32-.215.511-.264a.8.8 0 01.918.366c.228.372.225.735-.056 1.024z" fill="#E8ECF1"/></svg><svg viewBox="0 0 19 9" id="prev" xmlns="http://www.w3.org/2000/svg"><path fill-rule="evenodd" clip-rule="evenodd" d="M18.243 4.417c0-.398-.266-.721-.595-.721H2.015c-.329 0-.595.323-.595.72 0 .399.266.722.595.722h15.633c.329 0 .595-.323.595-.721z"/><path fill-rule="evenodd" clip-rule="evenodd" d="M4.607.976a.617.617 0 00-.844.006L.63 4.018a.55.55 0 000 .798l3.133 3.036a.617.617 0 00.844.006.55.55 0 00.006-.805 3.671 3.671 0 010-5.272.55.55 0 00-.006-.805z"/></svg><svg fill="none" viewBox="0 0 18 60" id="sl-next" xmlns="http://www.w3.org/2000/svg"><path fill-rule="evenodd" clip-rule="evenodd" d="M.986.186A1.797 1.797 0 013.38.97L17.65 29.08c.44.868.084 1.923-.798 2.357a1.797 1.797 0 01-2.393-.786L.188 2.543A1.744 1.744 0 01.987.186z" fill="#2838E9"/><path fill-rule="evenodd" clip-rule="evenodd" d="M.986 59.814a1.797 1.797 0 002.393-.785L17.65 30.92a1.744 1.744 0 00-.798-2.357 1.797 1.797 0 00-2.393.786L.188 57.457a1.744 1.744 0 00.798 2.357z" fill="#2838E9"/></svg><svg fill="none" viewBox="0 0 19 60" id="sl-prev" xmlns="http://www.w3.org/2000/svg"><path fill-rule="evenodd" clip-rule="evenodd" d="M17.257.186a1.797 1.797 0 00-2.393.785L.594 29.08a1.744 1.744 0 00.798 2.357 1.797 1.797 0 002.393-.786l14.27-28.107a1.744 1.744 0 00-.798-2.357z" fill="#2838E9"/><path fill-rule="evenodd" clip-rule="evenodd" d="M17.257 59.814a1.797 1.797 0 01-2.393-.785L.594 30.92a1.744 1.744 0 01.798-2.357 1.797 1.797 0 012.393.786l14.27 28.107c.44.868.083 1.923-.798 2.357z" fill="#2838E9"/></svg><svg fill="none" viewBox="0 0 1319 69" id="tape" xmlns="http://www.w3.org/2000/svg"><path d="M0 0h1420.47v69H0l11.778-34.5L0 0z" fill="#0C2872"/></svg><svg fill="none" viewBox="0 0 20 20" id="tl" xmlns="http://www.w3.org/2000/svg"><path d="M14.015 7.085l-5.31 4.341a.258.258 0 00-.096.168l-.053.441-.147 1.239a.057.057 0 01-.114.01l-.412-1.239-.426-1.267a.255.255 0 01.123-.302l6.27-3.593c.144-.084.292.098.165.202z" fill="#E8ECF1"/><path d="M10 0a10 10 0 100 20 10 10 0 000-20zm6.238 5.789l-1.953 8.626c-.092.404-.605.587-.966.34l-2.947-2-1.502 1.42a.516.516 0 01-.831-.184l-1.084-3.182-2.906-.795a.377.377 0 01-.033-.729L15.24 5.241l.207-.074c.435-.152.885.2.79.622z" fill="#E8ECF1"/></svg><svg fill="none" viewBox="0 0 35 35" id="users" xmlns="http://www.w3.org/2000/svg"><path d="M32.996 30.297l.675 1.056M12.885 2.693a5.577 5.577 0 100 11.153 5.577 5.577 0 000-11.154zm-8.27 5.576a8.27 8.27 0 1116.539 0 8.27 8.27 0 01-16.539 0zM9.47 23.462a6.778 6.778 0 00-6.778 6.777.99.99 0 00.065.388c.026.059.045.07.053.075.924.543 3.58 1.606 10.075 1.606 6.494 0 9.15-1.063 10.073-1.606.009-.005.029-.016.055-.075a.989.989 0 00.064-.388 6.778 6.778 0 00-6.778-6.777H9.47zM0 30.239a9.47 9.47 0 019.47-9.47h6.83a9.47 9.47 0 019.47 9.47c0 .901-.305 2.113-1.448 2.784C22.817 33.908 19.616 35 12.885 35c-6.731 0-9.932-1.092-11.438-1.977C.304 32.353 0 31.14 0 30.24zM25.351 2.354a1.346 1.346 0 10-.702 2.6c1.646.444 3.043 2.19 3.043 4.47 0 2.402-1.624 4.215-3.43 4.432a1.346 1.346 0 00.322 2.673c3.386-.407 5.8-3.583 5.8-7.106 0-3.334-2.063-6.266-5.033-7.069zm2.366 19.504c.143-.73.85-1.206 1.58-1.064A7.054 7.054 0 0135 27.718v.936c0 .828-.249 2.008-1.33 2.699-.727.465-1.855.96-3.595 1.313a1.346 1.346 0 11-.534-2.64c1.48-.299 2.282-.688 2.676-.94a.051.051 0 00.007-.005.215.215 0 00.026-.05c.029-.069.058-.194.058-.377v-.936a4.362 4.362 0 00-3.527-4.281 1.346 1.346 0 01-1.064-1.58z" fill="#fff"/><path d="M32.996 30.297l.675 1.056M12.885 2.693a5.577 5.577 0 100 11.153 5.577 5.577 0 000-11.154zm-8.27 5.576a8.27 8.27 0 1116.539 0 8.27 8.27 0 01-16.539 0zM9.47 23.462a6.778 6.778 0 00-6.778 6.777.99.99 0 00.065.388c.026.059.045.07.053.075.924.543 3.58 1.606 10.075 1.606 6.494 0 9.15-1.063 10.073-1.606.009-.005.029-.016.055-.075a.989.989 0 00.064-.388 6.778 6.778 0 00-6.778-6.777H9.47zM0 30.239a9.47 9.47 0 019.47-9.47h6.83a9.47 9.47 0 019.47 9.47c0 .901-.305 2.113-1.448 2.784C22.817 33.908 19.616 35 12.885 35c-6.731 0-9.932-1.092-11.438-1.977C.304 32.353 0 31.14 0 30.24zM25.351 2.354a1.346 1.346 0 10-.702 2.6c1.646.444 3.043 2.19 3.043 4.47 0 2.402-1.624 4.215-3.43 4.432a1.346 1.346 0 00.322 2.673c3.386-.407 5.8-3.583 5.8-7.106 0-3.334-2.063-6.266-5.033-7.069zm2.366 19.504c.143-.73.85-1.206 1.58-1.064A7.054 7.054 0 0135 27.718v.936c0 .828-.249 2.008-1.33 2.699-.727.465-1.855.96-3.595 1.313a1.346 1.346 0 11-.534-2.64c1.48-.299 2.282-.688 2.676-.94a.051.051 0 00.007-.005.215.215 0 00.026-.05c.029-.069.058-.194.058-.377v-.936a4.362 4.362 0 00-3.527-4.281 1.346 1.346 0 01-1.064-1.58z" stroke="#3C4CFD"/></svg><svg fill="none" viewBox="0 0 20 20" id="vk" xmlns="http://www.w3.org/2000/svg"><path d="M10 0a10 10 0 100 20 10 10 0 000-20zm5.764 13.914c-.291.04-1.714 0-1.788 0a1.396 1.396 0 01-.987-.391c-.3-.29-.569-.608-.862-.91a2.303 2.303 0 00-.28-.254c-.234-.18-.466-.14-.576.138a5.377 5.377 0 00-.18.912c-.02.28-.197.455-.51.474a7.09 7.09 0 01-.581.009 4.415 4.415 0 01-2.01-.496 5.472 5.472 0 01-1.72-1.503c-.757-.968-1.363-2.032-1.904-3.128a50.282 50.282 0 01-.597-1.291c-.05-.185 0-.364.154-.426.097-.038 1.925 0 1.955 0a.64.64 0 01.614.442c.338.865.8 1.675 1.373 2.407.08.097.174.182.278.253.149.102.29.067.351-.106.073-.238.116-.484.128-.733.01-.493 0-.817-.028-1.31-.018-.316-.13-.592-.595-.682-.143-.026-.156-.144-.064-.262.192-.245.455-.284.75-.3.438-.024.876-.007 1.315.001h.095c.191 0 .382.019.569.058a.524.524 0 01.417.467c.022.124.032.25.028.377-.011.538-.037 1.076-.043 1.614a2.76 2.76 0 00.058.635c.062.286.259.358.454.151.254-.267.486-.553.695-.855a8.61 8.61 0 00.909-1.768c.127-.319.227-.39.568-.39h1.939c.115-.001.23.014.34.046a.295.295 0 01.204.38c-.096.426-.325.788-.568 1.137-.394.558-.81 1.103-1.214 1.654a2.259 2.259 0 00-.133.221c-.152.275-.14.429.08.656.352.362.728.701 1.068 1.074.25.271.474.563.673.874.242.39.088.759-.375.825z" fill="#E8ECF1"/></svg></svg>