<svg width="117" height="27" viewBox="0 0 117 27" fill="none" xmlns="http://www.w3.org/2000/svg">
<path d="M0.906515 15.38L0 17.1874H3.8472L4.76155 15.3783L0.906515 15.38ZM9.19689 0.127013L19.9261 9.83861L7.5454 24.5819L11.8192 15.3881H5.79354L4.88546 17.194H8.5319L4.07775 26.8307H8.23705L23.2934 9.8321L12.594 0.127013H9.19689ZM27.0527 4.26796H29.5088V7.54261H31.314V0.154697H29.5088V2.85942H27.0527V0.154697H25.2507V7.54261H27.0559L27.0527 4.26796ZM35.8575 0C34.7743 0 33.9237 0.345215 33.3058 1.03564C32.6879 1.72607 32.3789 2.66456 32.3789 3.8511C32.3789 5.03004 32.6879 5.9658 33.3058 6.6584C33.9237 7.35101 34.7743 7.69731 35.8575 7.69731C36.9376 7.69731 37.7887 7.35481 38.4108 6.6698C39.0329 5.9848 39.3435 5.04523 39.3424 3.8511C39.3424 2.65696 39.0319 1.71684 38.4108 1.03076C37.7897 0.344672 36.9386 0.00108558 35.8575 0ZM37.3537 4.96979C37.2779 5.23957 37.1575 5.49359 36.9977 5.72046C36.8632 5.90951 36.6853 6.06065 36.4802 6.16012C36.2865 6.25338 36.0757 6.30172 35.8622 6.30179C35.6533 6.30175 35.4467 6.25684 35.2553 6.16989C35.0468 6.07174 34.8655 5.92051 34.7283 5.73023C34.5663 5.50478 34.4456 5.25032 34.3723 4.97956C34.2775 4.61118 34.2336 4.23067 34.2421 3.84947C34.2345 3.46457 34.281 3.08057 34.3801 2.70961C34.4512 2.43334 34.5732 2.17399 34.7393 1.9459C34.8776 1.76063 35.056 1.6117 35.26 1.51113C35.4519 1.42981 35.6574 1.38881 35.8647 1.39049C36.072 1.39216 36.2769 1.43649 36.4676 1.5209C36.6746 1.61796 36.8547 1.76747 36.9914 1.95567C37.1544 2.1845 37.2746 2.44298 37.3459 2.71775C37.521 3.45544 37.5237 4.22591 37.3537 4.9649V4.96979ZM44.5165 7.41234C44.84 7.31941 45.1427 7.16116 45.4073 6.94663C45.6368 6.76191 45.8233 6.52594 45.9531 6.2562C46.0922 5.95455 46.1615 5.62333 46.1554 5.28895C46.1777 4.8503 46.0336 4.42004 45.7539 4.09047C45.4668 3.78299 45.0936 3.5773 44.6874 3.50263V3.46192C44.9863 3.33887 45.2407 3.12197 45.4151 2.84151C45.5915 2.55434 45.6826 2.21966 45.6771 1.87914C45.6819 1.58906 45.615 1.30253 45.4826 1.04704C45.3485 0.802184 45.1477 0.603911 44.9054 0.477114C44.6669 0.344468 44.4079 0.256284 44.1401 0.216574C43.7425 0.16756 43.3421 0.146887 42.9418 0.154697H40.4089V7.54261H43.2869C43.7008 7.55257 44.1142 7.50603 44.5165 7.4042V7.41234ZM42.2031 1.51764H42.3286C42.6501 1.51764 42.8916 1.51764 43.0547 1.51764C43.1995 1.51873 43.3427 1.54857 43.4766 1.60557C43.5983 1.65756 43.6972 1.75441 43.7542 1.87751C43.8108 1.99146 43.8414 2.11736 43.8436 2.24552C43.8468 2.39222 43.819 2.53785 43.7621 2.67216C43.6987 2.80238 43.5924 2.90466 43.4625 2.96038C43.3418 3.01975 43.2115 3.0551 43.0783 3.06459C42.9544 3.06459 42.7395 3.07436 42.4305 3.07436H42.2031V1.51764ZM42.3004 6.19595H42.2031V4.33798H42.5356C42.8571 4.33798 43.1143 4.33798 43.3057 4.33798C43.4595 4.33841 43.6121 4.36538 43.7574 4.41777C43.9182 4.46882 44.0596 4.57072 44.162 4.70925C44.2598 4.86882 44.3069 5.05616 44.2969 5.24498C44.2995 5.41251 44.2607 5.57793 44.184 5.72535C44.1033 5.87303 43.9766 5.98787 43.8248 6.05102C43.6509 6.13074 43.4642 6.17603 43.2743 6.18455C43.094 6.18618 42.7693 6.18781 42.3004 6.18781V6.19595ZM48.6742 6.04288H50.9311L51.3796 7.55075H55.2598L57.0681 4.84277H57.7488V7.55075H59.5445V0.154697H56.618C56.256 0.150444 55.8946 0.187576 55.5405 0.265425C55.256 0.327746 54.9852 0.444835 54.7422 0.610639C54.4869 0.790239 54.2727 1.02595 54.1149 1.30107C53.9483 1.60068 53.8642 1.94202 53.8717 2.28786C53.8509 2.77208 53.9765 3.25094 54.2309 3.65732C54.4893 4.02678 54.8433 4.31251 55.2519 4.48128L53.1989 7.42537L50.815 0.154697H48.842L46.4236 7.54261H48.2319L48.6742 6.04288ZM55.8338 2.05663C55.8881 1.9269 55.9747 1.8145 56.0847 1.73096C56.212 1.6277 56.3637 1.56189 56.5239 1.54044C56.7386 1.5184 56.9543 1.50916 57.17 1.51276H57.7488V3.50263H57.1794C56.961 3.5055 56.7425 3.49408 56.5254 3.46843C56.3685 3.44794 56.2196 3.38443 56.0941 3.28442C55.9849 3.19881 55.8972 3.08709 55.8385 2.95875C55.7752 2.81643 55.7436 2.66116 55.746 2.50443C55.7441 2.35037 55.7741 2.19768 55.8338 2.05663ZM49.8034 2.25855L50.5358 4.70111H49.0694L49.8034 2.25855ZM29.3959 13.0726C29.5378 12.8507 29.6566 12.6138 29.7503 12.3658C29.8481 12.0716 30.009 11.8044 30.2208 11.5842C30.3718 11.4543 30.5627 11.385 30.7588 11.3888H31.1728V9.80604C31.1148 9.80604 31.0332 9.80604 30.9266 9.80604C30.8199 9.80604 30.6866 9.7979 30.5266 9.7979C30.1125 9.77827 29.7012 9.87742 29.3378 10.0845C28.9993 10.3191 28.7334 10.6505 28.5725 11.0387C28.5176 11.1576 28.4548 11.2976 28.3827 11.4556C28.3105 11.6135 28.2462 11.7519 28.1914 11.8676C28.0727 12.1523 27.9035 12.4114 27.6926 12.6313C27.5078 12.7616 27.2887 12.8293 27.0653 12.825V9.80604H25.2507V17.194H27.0559V14.2124H27.5091L29.4351 17.194H31.5869L29.0869 13.3982C29.2106 13.3132 29.3158 13.2023 29.3959 13.0726ZM35.2255 9.65298C34.1412 9.65298 33.2906 9.99819 32.6737 10.6886C32.0569 11.3791 31.7479 12.3175 31.7468 13.5041C31.7468 14.6808 32.0558 15.6161 32.6737 16.3098C33.2917 17.0034 34.1423 17.3503 35.2255 17.3503C36.3055 17.3503 37.1566 17.0078 37.7788 16.3228C38.4009 15.6378 38.7114 14.6982 38.7104 13.5041C38.7104 12.3099 38.3998 11.3693 37.7788 10.6821C37.1577 9.99494 36.3066 9.65135 35.2255 9.65135V9.65298ZM36.7217 14.6228C36.6462 14.8935 36.5251 15.1482 36.3641 15.3751C36.2305 15.5644 36.0531 15.7157 35.8481 15.8147C35.6541 15.9067 35.4434 15.9544 35.2302 15.9548C35.0215 15.9545 34.815 15.9101 34.6232 15.8245C34.4147 15.7263 34.2335 15.5751 34.0962 15.3848C33.9338 15.1591 33.8131 14.904 33.7402 14.6325C33.564 13.8883 33.5667 13.1104 33.7481 12.3675C33.8191 12.0912 33.9411 11.8319 34.1072 11.6038C34.2456 11.4185 34.424 11.2696 34.6279 11.169C34.8196 11.0867 35.0253 11.0452 35.2327 11.0468C35.4401 11.0485 35.6451 11.0934 35.8356 11.1788C36.0425 11.2758 36.2226 11.4253 36.3594 11.6135C36.5223 11.8424 36.6425 12.1008 36.7138 12.3756C36.81 12.7415 36.8549 13.12 36.8472 13.4992C36.8567 13.8774 36.8145 14.2552 36.7217 14.6211V14.6228ZM41.5836 13.9209H44.0397V17.1956H45.8449V9.80604H44.0365V12.5108H41.5805V9.80604H39.7769V17.194H41.5805L41.5836 13.9209ZM52.4053 18.8924H54.0615V15.7984H53.3809V9.80604H51.5725V15.7903H49.1322V9.80604H47.327V17.194H52.4022L52.4053 18.8924ZM59.8613 15.787H56.7936V13.9193H59.6167V12.5108H56.7936V11.2081H59.8582V9.79953H54.9963V17.1874H59.8582L59.8613 15.787ZM64.179 17.3405C64.4503 17.3453 64.7215 17.3268 64.9899 17.2851C65.2017 17.2426 65.4111 17.1883 65.6172 17.1223C65.7998 17.066 65.9785 16.997 66.1521 16.9155L66.6116 16.7006V14.9663H66.4469C66.3575 15.0494 66.2509 15.1422 66.1332 15.2497C65.9994 15.3644 65.8573 15.4684 65.7082 15.5607C65.5375 15.6728 65.3548 15.764 65.164 15.8326C64.9456 15.9139 64.7153 15.9547 64.4833 15.9531C64.2487 15.9524 64.016 15.9105 63.7948 15.8294C63.56 15.7442 63.346 15.6069 63.1675 15.4272C62.9592 15.2135 62.7986 14.955 62.6969 14.67C62.5682 14.2991 62.5075 13.9064 62.5182 13.5122C62.5097 13.1248 62.5676 12.7388 62.6891 12.3724C62.7825 12.0884 62.9327 11.8281 63.1298 11.6087C63.305 11.4157 63.5193 11.2655 63.7572 11.169C63.9867 11.0819 64.2295 11.0388 64.4739 11.042C64.6877 11.0415 64.9 11.0795 65.1012 11.1543C65.2937 11.2246 65.4787 11.3152 65.6533 11.4246C65.8099 11.523 65.9603 11.6318 66.1034 11.7503C66.2336 11.861 66.3434 11.9555 66.4312 12.0353H66.6147V10.2799C66.4955 10.2164 66.3387 10.1431 66.1442 10.0568C65.9702 9.97749 65.7916 9.90951 65.6094 9.85327C65.3936 9.79197 65.174 9.74573 64.9523 9.71486C64.6965 9.67902 64.4387 9.66215 64.1806 9.66438C63.1026 9.66438 62.2463 10.0128 61.6116 10.7098C60.977 11.4067 60.6591 12.3403 60.6581 13.5106C60.6581 14.7253 60.9749 15.6671 61.6085 16.3358C62.2421 17.0045 63.0979 17.3389 64.1759 17.3389L64.179 17.3405ZM70.774 17.3405C71.0453 17.3454 71.3165 17.3269 71.5849 17.2851C71.7967 17.2428 72.0061 17.1885 72.2122 17.1223C72.3952 17.0658 72.5744 16.9967 72.7486 16.9155L73.2066 16.7006V14.9663H73.0497C72.9587 15.0494 72.8521 15.1422 72.736 15.2497C72.6028 15.3645 72.4612 15.4684 72.3126 15.5607C72.1413 15.6727 71.9582 15.764 71.7668 15.8326C71.5485 15.9141 71.3181 15.9549 71.0861 15.9531C70.8521 15.9522 70.6198 15.9104 70.3992 15.8294C70.164 15.745 69.9498 15.6077 69.7718 15.4272C69.5637 15.2135 69.4031 14.955 69.3013 14.67C69.1726 14.2991 69.1119 13.9064 69.1225 13.5122C69.1145 13.1247 69.173 12.7387 69.2951 12.3724C69.3872 12.0878 69.5376 11.8273 69.7358 11.6087C69.9087 11.4167 70.1202 11.2666 70.3553 11.169C70.5849 11.0822 70.8277 11.0391 71.072 11.042C71.2858 11.0417 71.498 11.0797 71.6994 11.1543C71.8917 11.2249 72.0766 11.3155 72.2514 11.4246C72.4076 11.523 72.5574 11.6318 72.7 11.7503C72.8317 11.861 72.9415 11.9555 73.0278 12.0353H73.2113V10.2799C73.0921 10.2164 72.9368 10.1431 72.7407 10.0568C72.5663 9.97721 72.3872 9.90922 72.2044 9.85327C71.9891 9.79198 71.7701 9.74574 71.5488 9.71486C71.2931 9.67913 71.0352 9.66226 70.7772 9.66438C69.7002 9.66438 68.8434 10.0128 68.2066 10.7098C67.5699 11.4067 67.2525 12.3403 67.2546 13.5106C67.2546 14.7253 67.5714 15.6671 68.205 16.3358C68.8387 17.0045 69.6939 17.3389 70.7709 17.3389L70.774 17.3405ZM78.7021 12.3284V17.1956H80.4775V9.80604H78.5955L76.0422 14.2026V9.80604H74.2699V17.194H75.9386L78.7021 12.3284ZM84.9944 9.65298C83.9112 9.65298 83.0601 9.99819 82.4411 10.6886C81.8221 11.3791 81.5137 12.3175 81.5157 13.5041C81.5157 14.6808 81.8242 15.6161 82.4411 16.3098C83.058 17.0034 83.9091 17.3503 84.9944 17.3503C86.0745 17.3503 86.925 17.0078 87.5461 16.3228C88.1672 15.6378 88.4777 14.6982 88.4777 13.5041C88.4777 12.3099 88.1672 11.3693 87.5461 10.6821C86.925 9.99494 86.0734 9.65135 84.9912 9.65135L84.9944 9.65298ZM86.489 14.6228C86.4134 14.8931 86.2929 15.1477 86.133 15.3751C85.9995 15.5644 85.822 15.7157 85.617 15.8147C85.423 15.9065 85.2123 15.9543 84.9991 15.9548C84.7898 15.9546 84.5828 15.9103 84.3906 15.8245C84.1823 15.7267 84.0015 15.5753 83.8652 15.3848C83.7023 15.1591 83.5811 14.904 83.5076 14.6325C83.3314 13.8883 83.3341 13.1104 83.5154 12.3675C83.5872 12.0915 83.7091 11.8322 83.8746 11.6038C84.0133 11.4188 84.1916 11.27 84.3953 11.169C84.5872 11.0867 84.7932 11.0452 85.0008 11.0469C85.2085 11.0486 85.4137 11.0934 85.6045 11.1788C85.8109 11.2767 85.9908 11.4261 86.1283 11.6135C86.2907 11.8427 86.4108 12.1011 86.4828 12.3756C86.5776 12.7418 86.6219 13.1201 86.6145 13.4992C86.6238 13.8776 86.5805 14.2555 86.4859 14.6211L86.489 14.6228ZM93.8039 12.5059H91.3447V9.80604H89.5411V17.194H91.3447V13.9193H93.8008V17.194H95.6059V9.80604H93.8008L93.8039 12.5059ZM101.356 12.5059H98.8964V9.80604H97.0927V17.194H98.8964V13.9193H101.352V17.194H103.158V9.80604H101.352L101.356 12.5059ZM114.08 9.80116C113.717 9.79602 113.355 9.83316 113.001 9.91189C112.716 9.97346 112.445 10.0906 112.202 10.2571C111.948 10.437 111.734 10.672 111.575 10.9459C111.408 11.2461 111.324 11.588 111.332 11.9343C111.312 12.4187 111.438 12.8975 111.693 13.3038C111.95 13.6731 112.304 13.9589 112.712 14.1277L110.651 17.0718L108.264 9.80116H106.297L103.871 17.1891H105.68L106.13 15.6812H108.388L108.837 17.1891H112.715L114.525 14.4795H115.204V17.1891H117V9.80604L114.08 9.80116ZM106.525 14.3508L107.259 11.9083L107.991 14.3508H106.525ZM115.204 13.1605H114.635C114.417 13.1638 114.199 13.1519 113.982 13.1247C113.825 13.1052 113.675 13.0416 113.55 12.9407C113.44 12.8551 113.353 12.7434 113.294 12.615C113.231 12.4725 113.2 12.3173 113.203 12.1607C113.201 12.0078 113.23 11.8562 113.289 11.7161C113.343 11.5861 113.43 11.4736 113.54 11.3904C113.668 11.287 113.819 11.2207 113.979 11.1983C114.194 11.1779 114.41 11.1692 114.625 11.1722H115.204V13.1605ZM29.3959 22.7239C29.5378 22.5021 29.6566 22.2651 29.7503 22.0172C29.8481 21.723 30.009 21.4557 30.2208 21.2356C30.3718 21.1056 30.5627 21.0363 30.7588 21.0402H31.1728V19.4558C31.1148 19.4558 31.0332 19.4558 30.9266 19.4558C30.8199 19.4558 30.6866 19.4476 30.5266 19.4476C30.1103 19.424 29.6958 19.5198 29.3284 19.7244C28.9902 19.9601 28.7244 20.292 28.5631 20.6803C28.5082 20.7992 28.4454 20.9376 28.3733 21.0972C28.3011 21.2567 28.2368 21.3935 28.1819 21.5091C28.0632 21.7939 27.8941 22.053 27.6832 22.2728C27.4979 22.4022 27.2791 22.4698 27.0559 22.4666V19.4541H25.2507V26.8437H27.0559V23.8638H27.5091L29.4351 26.8453H31.5869L29.0869 23.0496C29.2106 22.9646 29.3158 22.8536 29.3959 22.7239ZM35.2255 19.3043C34.1412 19.3043 33.2906 19.649 32.6737 20.3383C32.0569 21.0277 31.7479 21.9667 31.7468 23.1554C31.7468 24.3333 32.0558 25.2685 32.6737 25.9611C33.2917 26.6537 34.1423 27 35.2255 27C36.3055 27 37.1566 26.658 37.7788 25.9741C38.4009 25.2902 38.7114 24.3506 38.7104 23.1554C38.7104 21.9613 38.3998 21.0206 37.7788 20.3335C37.1577 19.6463 36.3066 19.3027 35.2255 19.3027V19.3043ZM36.7217 24.2741C36.6462 24.5448 36.5251 24.7995 36.3641 25.0264C36.2304 25.2153 36.0529 25.366 35.8481 25.4645C35.6545 25.5577 35.4436 25.606 35.2302 25.6061C35.0213 25.6061 34.8146 25.5612 34.6232 25.4742C34.4145 25.3773 34.2331 25.2265 34.0962 25.0362C33.9338 24.8104 33.8131 24.5553 33.7402 24.2839C33.564 23.5396 33.5667 22.7618 33.7481 22.0188C33.8192 21.7421 33.9411 21.4822 34.1072 21.2535C34.2456 21.0686 34.424 20.9202 34.6279 20.8203C34.8196 20.738 35.0253 20.6965 35.2327 20.6982C35.4401 20.6999 35.6451 20.7447 35.8356 20.8301C36.0425 20.9272 36.2226 21.0767 36.3594 21.2649C36.5224 21.4931 36.6426 21.751 36.7138 22.0253C36.8889 22.7636 36.8916 23.5346 36.7217 24.2741ZM43.4437 23.1033L41.8502 19.4558H39.7769V26.8453H41.4754V21.9472L42.7818 25.1095H44.013L45.3257 21.9472V26.8453H47.1215V19.4558H45.0356L43.4437 23.1033ZM48.5973 26.8486H50.401V20.8643H52.857V26.8437H54.6622V19.4558H48.6021L48.5973 26.8486ZM57.8021 19.459L55.3758 26.8486H57.1841L57.6343 25.3391H59.8958L60.3444 26.8486H62.2029L59.7751 19.459H57.8021ZM58.0295 23.9973L58.7619 21.5547L59.4959 23.9973H58.0295ZM67.1778 22.167H64.7217V19.4558H62.9165V26.8453H64.7217V23.5707H67.1778V26.8453H68.9814V19.4558H67.1778V22.167ZM72.2436 23.8654V19.4688H70.4682V26.8583H72.1448L74.9051 21.9911V26.8583H76.6805V19.4558H74.7984L72.2436 23.8654ZM79.72 19.5616C79.4352 19.6232 79.1643 19.7403 78.9217 19.9068C78.6668 20.0863 78.4527 20.3214 78.2943 20.5956C78.1278 20.8958 78.0437 21.2377 78.0512 21.584C78.0307 22.0682 78.1562 22.547 78.4104 22.9535C78.6692 23.3225 79.0231 23.6081 79.4314 23.7775L77.289 26.8388H79.4377L81.2413 24.1357H81.922V26.8453H83.7177V19.4558H80.7974C80.4356 19.449 80.0742 19.4845 79.72 19.5616ZM81.9267 20.8106V22.8004H81.3573C81.1388 22.8029 80.9204 22.7909 80.7033 22.7646C80.5462 22.7449 80.3971 22.6813 80.272 22.5806C80.1626 22.4952 80.0749 22.3834 80.0164 22.2549C79.9538 22.1124 79.9227 21.9572 79.9254 21.8006C79.9232 21.6477 79.9526 21.4961 80.0117 21.3561C80.0662 21.2265 80.1528 21.1141 80.2626 21.0304C80.3899 20.9271 80.5416 20.8613 80.7018 20.8399C80.9166 20.8194 81.1322 20.8107 81.3479 20.8138L81.9267 20.8106Z" fill="white"/>
</svg>
