<svg width="116" height="34" viewBox="0 0 116 34" fill="none" xmlns="http://www.w3.org/2000/svg">
<path d="M48.7849 18.1647H43.521V24.4667H42.1123V9.56445H43.521V15.7922H48.7849V9.56445H50.2678V24.4667H48.7849V18.1647Z" fill="white"/>
<path d="M59.0904 21.2786V18.0905H54.3455C52.9368 18.0905 52.2695 17.275 52.2695 15.5697V9.49023H53.7523V15.1249C53.7523 15.4956 53.9748 15.718 54.4937 15.718H59.0163V9.49023H60.425V21.8717C60.425 23.5769 59.7577 24.3925 58.4232 24.3925H52.2695V22.0941H58.2008C58.868 22.0941 59.0904 21.7975 59.0904 21.2786Z" fill="white"/>
<path d="M64.0581 18.0905V24.3925H62.6494V15.7922H68.5806C69.0996 15.7922 69.322 15.5697 69.322 15.199V12.53C69.322 12.0851 69.0996 11.7886 68.5806 11.7886H62.6494V9.49023H68.8031C70.2117 9.49023 70.879 10.3058 70.879 12.011V15.6439C70.879 17.275 70.2117 18.0905 68.8772 18.0905H64.0581Z" fill="white"/>
<path d="M81.1104 22.0942V24.3925H74.9568C73.5481 24.3925 72.8809 23.577 72.8809 21.8718V12.0852C72.8809 10.38 73.5481 9.56445 74.9568 9.56445H81.1104V11.8628H75.1051C74.5861 11.8628 74.3637 12.0852 74.3637 12.6042V15.8664H81.1104V18.1647H74.3637V21.5011C74.3637 21.9459 74.5861 22.1683 75.1051 22.1683H77.0327H81.1104V22.0942Z" fill="white"/>
<path d="M91.3419 22.0941V24.4666H89.1918C87.8573 24.4666 87.19 23.651 87.19 21.9458V18.1647H84.521V24.4666H83.1123V15.7922H89.0435C89.5625 15.7922 89.7849 15.5697 89.7849 15.199V12.53C89.7849 12.0851 89.5625 11.7886 89.0435 11.7886H83.1123V9.49023H89.266C90.6746 9.49023 91.3419 10.3058 91.3419 12.011V15.6439C91.3419 17.275 90.6746 18.0905 89.3401 18.0905H88.6728V21.4268C88.6728 21.8717 88.8953 22.0941 89.3401 22.0941H91.3419Z" fill="white"/>
<path d="M94.8266 24.3925H93.418V9.56445H94.8266V15.8664V24.3925Z" fill="white"/>
<path d="M98.904 24.3925C97.4954 24.3925 96.8281 23.577 96.8281 21.8718V12.0852C96.8281 10.38 97.4954 9.56445 98.904 9.56445H102.982C104.39 9.56445 105.058 10.38 105.058 12.0852V21.9459C105.058 23.577 104.39 24.4667 102.982 24.4667H100.98H98.904V24.3925ZM102.833 22.0942C103.352 22.0942 103.575 21.8718 103.575 21.4269V12.5301C103.575 12.0852 103.352 11.7887 102.833 11.7887H99.0523C98.5334 11.7887 98.3109 12.0111 98.3109 12.5301V21.3528C98.3109 21.7976 98.5334 22.02 99.0523 22.02H100.98H102.833V22.0942Z" fill="white"/>
<path d="M113.88 12.5301C113.88 12.0852 113.657 11.7887 113.138 11.7887H109.357C108.838 11.7887 108.616 12.0111 108.616 12.5301V24.3925H107.133V12.0852C107.133 10.38 107.8 9.56445 109.209 9.56445H113.286C114.695 9.56445 115.362 10.38 115.362 12.0852V24.4667H113.88V12.5301Z" fill="white"/>
<path d="M16.9781 0C7.63646 0 0 7.63646 0 16.9781C0 26.3198 7.63646 33.9563 16.9781 33.9563C26.3198 33.9563 33.9563 26.3198 33.9563 16.9781C33.9563 7.63646 26.3198 0 16.9781 0ZM16.9781 32.1769C8.60029 32.1769 1.77937 25.356 1.77937 16.9781C1.77937 8.60028 8.60029 1.77937 16.9781 1.77937C25.356 1.77937 32.1769 8.60028 32.1769 16.9781C32.1769 25.356 25.356 32.1769 16.9781 32.1769Z" fill="white"/>
<path d="M16.9785 4.00391C9.861 4.00391 4.00391 9.78686 4.00391 16.9785C4.00391 24.096 9.78686 29.953 16.9785 29.953C24.096 29.953 29.953 24.1701 29.953 16.9785C29.953 9.861 24.096 4.00391 16.9785 4.00391ZM16.9785 28.1737C10.8248 28.1737 5.78328 23.1321 5.78328 16.9785C5.78328 10.8248 10.8248 5.78328 16.9785 5.78328C23.1321 5.78328 28.1737 10.8248 28.1737 16.9785C28.1737 23.1321 23.1321 28.1737 16.9785 28.1737Z" fill="white"/>
<path d="M16.9789 12.085C14.6064 12.085 12.6046 13.7902 12.1598 16.0885H10.4546C10.158 15.5696 9.56488 15.1989 8.97175 15.1989C8.00793 15.1989 7.19238 16.0144 7.19238 16.9782C7.19238 17.9421 8.00793 18.7576 8.97175 18.7576C9.63902 18.7576 10.158 18.3869 10.4546 17.8679H12.1598C12.6046 20.1663 14.6064 21.8715 16.9789 21.8715C19.7221 21.8715 21.8722 19.6473 21.8722 16.9782C21.8722 14.235 19.648 12.085 16.9789 12.085ZM16.9789 20.0921C15.5702 20.0921 14.384 19.1283 14.0133 17.8679H15.5702L17.0531 19.3507L19.3514 17.0524L17.0531 14.754L15.7185 16.0885H14.0133C14.384 14.8282 15.5702 13.8643 16.9789 13.8643C18.6841 13.8643 20.0928 15.273 20.0928 16.9782C20.0928 18.6835 18.6841 20.0921 16.9789 20.0921Z" fill="white"/>
</svg>
